<?xml version="1.0" standalone="no"?>
<!DOCTYPE svg PUBLIC "-//W3C//DTD SVG 20010904//EN"
 "http://www.w3.org/TR/2001/REC-SVG-20010904/DTD/svg10.dtd">
<svg version="1.0" xmlns="http://www.w3.org/2000/svg"
 width="1024.000000pt" height="1024.000000pt" viewBox="0 0 1024.000000 1024.000000"
 preserveAspectRatio="xMidYMid meet">

<g transform="translate(0.000000,1024.000000) scale(0.100000,-0.100000)"
fill="#000000" stroke="none">
<path d="M5104 8746 c-277 -285 -528 -615 -650 -859 -81 -160 -35 -212 154
-172 238 50 453 219 582 458 77 143 120 313 120 476 l0 86 46 -69 c101 -150
126 -283 85 -446 -67 -269 -280 -518 -565 -660 l-91 -45 -3 -708 -2 -707 -95
0 -95 0 0 685 0 685 -77 0 c-43 0 -88 3 -100 6 l-23 6 0 -691 0 -691 -107 0
c-117 0 -157 -14 -185 -62 -10 -18 -14 -207 -18 -932 l-5 -909 -43 -13 c-24
-7 -53 -21 -64 -31 -49 -44 -48 -8 -48 -1193 0 -718 -3 -1110 -10 -1110 -18 0
-210 80 -299 125 -106 53 -237 129 -341 198 -178 119 -298 218 -233 192 29
-10 331 -53 433 -60 88 -7 96 -6 113 13 13 14 17 28 12 43 -10 32 -261 285
-369 373 -50 41 -161 130 -246 198 -344 273 -506 478 -658 833 -78 183 -88
218 -74 250 6 14 19 25 28 25 28 0 147 -73 309 -189 325 -233 586 -511 779
-831 67 -111 186 -345 186 -366 0 -8 4 -14 9 -14 25 0 57 380 46 545 -27 404
-201 765 -517 1071 -163 158 -309 263 -523 375 -223 116 -503 206 -767 245
l-118 18 0 120 c0 332 76 749 195 1083 78 214 232 519 358 708 179 268 374
498 587 693 314 287 608 480 995 655 159 72 179 92 179 182 0 86 -52 145 -130
145 -72 0 -513 -205 -714 -332 -470 -296 -839 -657 -1150 -1128 -226 -341
-370 -652 -485 -1046 -78 -267 -119 -554 -131 -904 -25 -730 196 -1465 634
-2110 349 -514 777 -900 1331 -1201 648 -352 1446 -508 2166 -424 478 56 863
170 1285 379 385 192 687 412 995 727 621 635 983 1423 1056 2298 13 159 7
532 -11 691 -53 463 -246 1015 -503 1442 -180 299 -344 507 -601 763 -298 297
-569 492 -945 679 -207 103 -367 166 -424 166 -82 0 -134 -66 -125 -161 6 -59
31 -97 79 -121 19 -9 135 -66 259 -127 343 -167 598 -342 865 -594 323 -304
549 -605 750 -1002 236 -465 365 -971 365 -1436 l0 -145 -133 -22 c-518 -85
-966 -302 -1287 -623 -262 -262 -427 -559 -486 -874 -32 -171 -26 -583 9 -706
l13 -43 18 49 c170 452 573 922 1081 1262 158 105 205 121 220 72 8 -23 -3
-59 -62 -204 -160 -391 -326 -597 -760 -941 -213 -169 -517 -461 -529 -508 -4
-16 -1 -33 7 -42 18 -21 123 -15 368 21 96 14 181 24 190 23 18 -4 -169 -144
-306 -230 -164 -103 -539 -288 -585 -288 -4 0 -8 496 -8 1103 0 725 -4 1115
-10 1139 -15 51 -62 97 -111 104 l-39 6 -2 907 c-3 855 -4 908 -21 934 -35 54
-71 67 -189 67 l-107 0 -4 888 c-3 859 -4 890 -25 982 -63 286 -205 568 -397
793 -69 81 -115 117 -150 117 -13 0 -68 -49 -151 -134z m-561 -3118 c5 -153 3
-1421 -2 -1435 -1 -2 -44 -3 -96 -3 l-95 0 0 814 c0 642 3 815 13 819 6 3 48
6 93 6 l81 1 6 -202z m1335 -620 l2 -818 -149 0 -149 0 -7 153 c-9 199 -2
1458 8 1475 6 9 44 12 150 10 l142 -3 3 -817z m160 -1360 l2 -258 -925 0 -925
0 0 253 c0 140 3 257 7 260 3 4 419 6 922 5 l916 -3 3 -257z m-1658 -1248 c0
-553 -3 -700 -12 -700 -7 0 -49 11 -93 23 l-80 23 -3 654 c-1 360 0 665 3 678
5 21 10 22 95 22 l90 0 0 -700z"/>
<path d="M3334 7291 c-37 -23 -48 -51 -63 -160 -21 -159 -112 -257 -256 -276
-72 -9 -104 -24 -120 -56 -19 -35 -19 -53 0 -88 16 -31 47 -46 115 -56 107
-16 199 -85 241 -180 10 -24 23 -82 28 -130 7 -67 13 -91 31 -110 30 -31 63
-38 104 -21 41 17 66 60 66 114 0 45 25 134 48 171 27 44 85 102 123 121 19
10 71 25 115 34 89 16 124 44 124 97 0 65 -27 86 -137 105 -163 28 -255 135
-270 311 -6 70 -9 81 -39 111 -37 37 -65 40 -110 13z"/>
<path d="M6824 7301 c-40 -17 -61 -56 -68 -130 -17 -188 -118 -300 -286 -318
-55 -5 -70 -11 -97 -39 -41 -40 -42 -73 -5 -115 23 -26 39 -33 106 -44 98 -17
171 -62 221 -138 37 -56 65 -147 65 -210 0 -31 7 -46 34 -73 37 -37 62 -42
106 -19 40 20 56 56 64 140 9 90 47 174 100 223 44 41 92 62 190 84 68 15 100
47 98 99 -1 50 -37 78 -120 94 -91 18 -140 43 -190 100 -47 54 -68 109 -81
219 -7 61 -15 84 -33 102 -26 27 -73 38 -104 25z"/>
<path d="M2684 6196 c-99 -43 -119 -186 -38 -263 63 -59 155 -54 213 12 110
125 -23 317 -175 251z"/>
<path d="M7430 6192 c-84 -42 -108 -160 -50 -240 50 -69 144 -81 210 -25 43
35 60 74 60 131 0 114 -118 186 -220 134z"/>
</g>
</svg>
